# xmcd
#
# Track frame offsets: 
#        150
#        32343
#        54009
#        79159
#        113277
#        134604
#        173388
#        196696
#        220561
#
# Disc length: 3349 seconds
#
# Revision: 1
# Processed by: cddbd v1.5.2PL0 Copyright (c) Steve Scherf et al.
# Submitted via: ExactAudioCopy v0.99pb5
#
DISCID=5c0d1309
DTITLE=Duane Eubanks - My Shining Hour
DYEAR=1997
DGENRE=Jazz
TTITLE0=Blues for Duane (by Freddie Hubbard)
TTITLE1=Clairvoyance (Duane Eubanks)
TTITLE2=Can't Wait Till Dawn (DE)
TTITLE3=Taylored By Louis (Louis Taylor)
TTITLE4=My Shining Hour (Harold Arlen)
TTITLE5=Dear Old Stockholm
TTITLE6=Lonelyism (DE)
TTITLE7=High Fly (Randy Weston)
TTITLE8=I Love You (Cole Porter)
EXTD=YEAR: 1997
EXTT0=
EXTT1=
EXTT2=
EXTT3=
EXTT4=
EXTT5=
EXTT6=
EXTT7=
EXTT8=
PLAYORDER=
